# xmcd
#
# Track frame offsets: 
#        150
#        14253
#        28719
#        43094
#        59935
#        77096
#        95205
#        111182
#        130350
#        144516
#        161218
#
# Disc length: 2376 seconds
#
# Revision: 0
# Processed by: cddbd v1.5.2PL0 Copyright (c) Steve Scherf et al.
# Submitted via: ExactAudioCopy v1.3
#
DISCID=a209460b
DTITLE=James House - James House and the Blues Cowbo
DYEAR=2018
DGENRE=Country Blues
TTITLE0=Jail House Blues
TTITLE1=Arkansas Woman
TTITLE2=Ain't No Way
TTITLE3=Long Way Down
TTITLE4=Good Love
TTITLE5=Moving on Over
TTITLE6=Well Ran Dry
TTITLE7=Gone Again
TTITLE8=Boomerang
TTITLE9=Ballad of the Troubadour Kings
TTITLE10=Which Side of the River
EXTD=
EXTT0=
EXTT1=
EXTT2=
EXTT3=
EXTT4=
EXTT5=
EXTT6=
EXTT7=
EXTT8=
EXTT9=
EXTT10=
PLAYORDER=
